<?xml version="1.0" encoding="UTF-8" ?>
<!DOCTYPE svg PUBLIC "-//W3C//DTD SVG 1.1//EN" "http://www.w3.org/Graphics/SVG/1.1/DTD/svg11.dtd">
<svg width="1280pt" height="411pt" viewBox="0 0 1280 411" version="1.1" xmlns="http://www.w3.org/2000/svg">
<g id="#f35a21ff">
<path fill="#f35a21" opacity="1.00" d=" M 915.30 0.00 L 930.72 0.00 C 977.35 0.74 1024.06 5.18 1069.57 15.62 C 1113.40 25.53 1156.05 41.00 1195.64 62.31 C 1185.28 76.96 1172.19 89.51 1157.75 100.09 C 1138.42 88.80 1118.02 79.40 1096.94 71.87 C 1032.58 49.17 963.89 41.98 895.99 41.03 C 796.11 40.35 696.68 53.67 598.85 72.94 C 494.90 93.56 392.50 121.53 291.72 154.22 C 290.97 154.42 289.46 154.80 288.71 154.99 C 301.60 150.47 314.38 145.64 327.26 141.05 C 428.21 103.83 529.70 67.38 634.08 40.84 C 725.95 17.23 820.24 0.97 915.30 0.00 Z" />
<path fill="#f35a21" opacity="1.00" d=" M 1159.75 114.76 C 1180.34 91.22 1201.43 68.03 1224.21 46.58 C 1205.87 83.21 1181.62 116.42 1157.27 149.22 C 1140.95 171.30 1124.22 193.09 1108.57 215.66 C 1096.71 215.66 1084.84 215.69 1072.97 215.65 C 1102.37 182.42 1130.64 148.23 1159.75 114.76 Z" />
<path fill="#f35a21" opacity="1.00" d=" M 1187.04 117.65 C 1198.97 105.73 1210.88 93.78 1222.83 81.87 C 1240.11 99.11 1255.75 118.38 1266.52 140.40 C 1273.79 155.14 1278.49 171.15 1280.00 187.53 L 1280.00 208.84 C 1278.93 217.66 1277.41 226.44 1274.84 234.96 C 1265.19 267.26 1245.52 295.47 1223.75 320.77 C 1197.23 351.25 1166.88 378.10 1135.85 403.86 C 1145.80 391.13 1155.95 378.57 1166.09 365.99 C 1189.35 336.68 1213.10 307.15 1229.12 273.08 C 1237.84 254.33 1243.79 233.81 1242.97 212.96 C 1242.39 194.43 1236.11 176.37 1226.24 160.78 C 1215.82 144.24 1201.99 130.12 1187.04 117.65 Z" />
<path fill="#f35a21" opacity="1.00" d=" M 133.51 154.00 C 151.26 153.99 169.02 153.73 186.77 153.74 C 186.77 237.16 186.77 320.58 186.77 403.99 C 171.58 404.01 156.38 404.00 141.19 404.00 C 141.05 399.15 141.09 394.29 140.79 389.45 C 137.71 391.44 135.28 394.23 132.29 396.32 C 128.11 399.50 123.31 401.78 118.28 403.23 C 103.85 407.10 88.87 409.82 73.89 408.45 C 55.18 406.86 37.56 398.66 22.81 387.30 C 19.84 384.86 17.43 381.85 15.24 378.72 C 4.82 363.38 1.14 344.58 0.00 326.36 L 0.00 316.79 C 0.90 299.06 4.76 281.18 13.48 265.58 C 21.43 251.05 33.82 238.91 48.87 231.88 C 68.75 222.50 91.59 221.63 113.02 224.93 C 119.18 225.76 124.89 228.83 131.14 229.07 C 132.81 229.13 133.70 227.52 133.51 226.04 C 133.51 202.03 133.50 178.02 133.51 154.00 M 70.94 263.99 C 63.12 268.31 58.57 276.51 55.54 284.61 C 49.77 300.63 48.04 318.00 49.67 334.91 C 50.80 344.41 52.89 354.29 58.83 362.05 C 63.98 368.75 73.00 370.39 80.95 370.89 C 98.39 371.68 115.68 368.01 132.40 363.43 C 132.40 330.78 132.37 298.13 132.42 265.49 C 125.72 263.37 118.92 261.51 112.03 260.13 C 98.47 257.43 83.23 256.55 70.94 263.99 Z" />
<path fill="#f35a21" opacity="1.00" d=" M 517.49 404.72 C 517.51 327.04 517.47 249.35 517.51 171.67 C 535.39 171.66 553.28 171.87 571.17 171.87 C 571.24 196.59 571.04 221.32 571.30 246.04 C 577.70 241.29 584.28 236.69 591.62 233.49 C 599.59 228.83 608.87 227.13 617.94 226.21 C 632.02 225.05 646.35 225.80 660.10 229.21 C 667.46 231.21 675.03 233.98 680.45 239.58 C 694.06 252.91 700.88 272.13 701.11 290.96 C 701.05 328.87 701.20 366.78 701.04 404.68 C 685.81 404.64 670.59 404.68 655.36 404.66 C 655.36 366.11 655.37 327.56 655.36 289.01 C 654.63 280.64 649.21 273.24 642.36 268.65 C 631.52 261.40 617.43 260.12 605.02 263.57 C 591.13 267.24 579.33 276.59 570.86 287.99 C 570.85 326.91 570.87 365.82 570.85 404.74 C 553.06 404.72 535.27 404.75 517.49 404.72 Z" />
<path fill="#f35a21" opacity="1.00" d=" M 768.01 172.39 C 785.14 172.43 802.27 172.37 819.40 172.42 C 819.41 193.02 819.37 213.61 819.42 234.21 C 837.29 234.17 855.16 234.27 873.02 234.30 C 874.56 234.12 876.22 235.25 876.03 236.95 C 876.13 246.99 876.03 257.03 875.92 267.07 C 876.11 269.16 873.72 269.99 872.04 269.86 C 855.12 269.89 838.20 269.83 821.29 269.88 C 821.31 296.62 821.25 323.35 821.32 350.09 C 821.72 361.13 829.42 372.82 841.04 374.16 C 855.88 374.67 870.78 373.99 885.62 374.50 C 887.73 377.12 887.59 380.78 887.92 383.96 C 888.02 390.85 888.20 398.02 885.84 404.59 C 862.73 407.68 839.23 409.17 816.05 406.06 C 808.54 404.83 800.53 405.18 793.70 401.38 C 783.51 395.95 775.68 386.51 771.23 375.95 C 768.72 370.64 769.50 364.70 769.40 359.03 C 769.39 329.75 769.42 300.47 769.38 271.19 C 760.25 271.21 751.12 271.66 741.99 271.52 C 741.73 271.14 741.21 270.37 740.94 269.99 C 740.70 259.32 740.83 248.64 740.73 237.96 C 740.59 236.36 740.95 234.24 742.91 234.04 C 751.71 233.68 760.52 233.61 769.32 233.38 C 768.90 213.05 768.36 192.72 768.01 172.39 Z" />
<path fill="#f35a21" opacity="1.00" d=" M 231.79 182.52 C 249.26 182.41 266.73 182.48 284.20 182.48 C 284.28 195.94 284.39 209.40 284.46 222.87 C 266.91 222.86 249.36 222.87 231.81 222.86 C 231.79 209.41 231.84 195.96 231.79 182.52 Z" />
<path fill="#f35a21" opacity="1.00" d=" M 363.01 222.08 C 387.63 218.72 412.79 215.79 437.53 219.69 C 447.66 221.87 457.37 225.80 466.57 230.53 C 476.06 235.76 485.60 242.52 490.21 252.69 C 493.23 259.20 492.00 267.16 487.29 272.55 C 471.90 272.78 456.49 273.42 441.10 273.33 C 429.80 267.66 417.68 263.32 405.02 262.12 C 394.74 261.16 383.89 261.15 374.26 265.31 C 370.81 266.89 366.62 269.65 367.14 274.02 C 367.43 281.50 373.17 287.43 379.62 290.51 C 391.00 296.03 403.71 297.79 416.12 299.45 C 429.58 300.89 443.40 301.24 456.27 305.87 C 470.54 310.94 483.81 320.28 491.30 333.70 C 498.28 345.77 499.63 361.14 493.89 373.97 C 488.57 386.25 477.73 395.31 465.75 400.78 C 447.54 409.22 427.10 409.49 407.46 411.00 L 386.46 411.00 C 379.43 410.55 372.33 410.06 365.49 408.30 C 354.28 404.72 343.11 400.80 332.61 395.44 C 326.12 391.97 319.46 387.74 315.91 381.07 C 312.53 374.52 313.90 366.90 315.35 360.02 C 330.59 359.98 345.82 360.00 361.06 360.01 C 366.81 365.73 374.28 369.42 382.07 371.44 C 395.40 374.93 409.76 374.99 422.98 370.98 C 428.19 369.23 433.88 366.66 436.45 361.47 C 438.43 357.12 436.15 352.12 432.55 349.40 C 425.76 344.08 417.28 341.71 409.26 338.89 C 390.86 333.12 372.25 328.04 353.82 322.37 C 344.42 319.13 335.26 314.81 327.61 308.36 C 318.37 300.86 311.49 290.05 310.08 278.10 C 308.33 264.59 313.69 250.76 323.09 241.09 C 333.43 230.04 348.18 223.95 363.01 222.08 Z" />
<path fill="#f35a21" opacity="1.00" d=" M 1063.03 225.61 C 1075.38 225.56 1087.73 225.30 1100.09 225.27 C 1058.15 284.66 1016.29 344.10 974.37 403.50 C 973.62 404.86 971.94 405.00 970.63 405.47 C 960.35 408.16 949.59 408.55 939.02 408.05 C 932.52 407.51 925.79 407.14 919.79 404.34 C 920.24 344.89 920.56 285.45 920.97 226.00 C 935.64 226.00 950.32 226.00 964.99 226.00 C 965.00 261.23 964.97 296.45 965.01 331.67 C 968.63 332.05 972.56 332.44 975.88 330.58 C 979.13 328.68 981.32 325.51 983.77 322.74 C 1010.22 290.39 1036.54 257.93 1063.03 225.61 Z" />
<path fill="#f35a21" opacity="1.00" d=" M 231.47 404.64 C 231.47 347.95 231.44 291.26 231.48 234.57 C 249.30 234.57 267.11 234.56 284.93 234.58 C 284.93 291.27 284.95 347.96 284.92 404.65 C 267.10 404.64 249.28 404.66 231.47 404.64 Z" />
</g>
</svg>
