<svg id="Layer_1" data-name="Layer 1" xmlns="http://www.w3.org/2000/svg" xmlns:xlink="http://www.w3.org/1999/xlink" viewBox="0 0 1232.35 1176.16"><defs><style>.cls-1{fill:#ea4805;}.cls-2{fill:#f70;}.cls-3{fill:#d6301a;}.cls-4{fill:url(#linear-gradient);}.cls-5{fill:url(#linear-gradient-2);}</style><linearGradient id="linear-gradient" x1="59.72" y1="774.39" x2="59.72" y2="343.01" gradientUnits="userSpaceOnUse"><stop offset="0.14" stop-color="#fbfbfb" stop-opacity="0"/><stop offset="0.82" stop-color="#a8a8a8"/></linearGradient><linearGradient id="linear-gradient-2" x1="765.59" y1="774.39" x2="765.59" y2="343.01" gradientTransform="matrix(-1, 0, 0, 1, 1707.44, 0)" xlink:href="#linear-gradient"/></defs><title>dishathon_logo</title><path class="cls-1" d="M498.82-106.16c3.47,7.58,5.51,15.69,8.11,23.59C532.75-3.51,558.16,75.7,583.8,154.82c.41,1.3.83,2.62,1.28,3.94-28.92,87.85-57.05,176-85.64,263.95-29-88.39-57.36-177-86.1-265.43.91-2.83,1.84-5.66,2.77-8.48Q454.56,30.3,492.83-88.3C494.75-94.27,496.67-100.25,498.82-106.16Z" transform="translate(116.12 106.16)"/><path class="cls-2" d="M215.33,766q99-304.52,198-609c28.73,88.45,57.1,177,86.1,265.43l-.08.56Q423.13,657.35,347.52,891.84c-1.22,4-2.27,8.17-3.28,12.3q-86.82,63.29-173.7,126.47c-18,13.09-36,26.09-53.85,39.28,4.87-16.64,10.78-33,15.81-49.56Q174.14,893.26,215.33,766Z" transform="translate(116.12 106.16)"/><path class="cls-2" d="M-116.12,341.94c92.66.68,185.34.64,278,.78,51.81.08,103.62,0,155.43.14Q275.67,470.12,234.09,597.4c-23.06-17-46.3-33.79-69.44-50.68q-52.36-38.39-104.88-76.5Q-27.33,406.47-114.65,343Z" transform="translate(116.12 106.16)"/><path class="cls-3" d="M499.45,422.52c28.59-88,56.72-176.1,85.64-263.95q98.8,302.45,197.36,605,40.38,124,80.9,248c6.42,19.49,12.59,39,19.16,58.48-17.32-12.43-34.47-25.1-51.75-37.61q-87.93-64.06-175.91-128c-10.18-34.86-22.19-69.17-33.15-103.81Q560.5,611.83,499.36,423.08Z" transform="translate(116.12 106.16)"/><path class="cls-3" d="M681.16,342.93c49.11-.27,98.21-.17,147.32-.17q143.88-.25,287.75-.83l-1.75,1.3Q1027,406.65,939.49,470q-50.1,36.13-100.07,72.45-37.59,27.19-75.16,54.39Q722.74,469.87,681.16,342.93Z" transform="translate(116.12 106.16)"/><path class="cls-1" d="M347.52,891.84q76-234.36,151.84-468.76,61.24,188.72,122.32,377.5c11,34.64,23,68.94,33.15,103.81q-77.69-56.57-155.33-113.24-77.72,56.41-155.27,113C345.25,900,346.3,895.89,347.52,891.84Z" transform="translate(116.12 106.16)"/><path class="cls-4" d="M164.65,546.73q-52.36-38.39-104.88-76.5Q-27.33,406.47-114.65,343c4,18.52,12.47,35.69,18,53.77,9.7,26.28,19,52.72,28.38,79.1,9.45,27.41,19.75,54.52,29.35,81.89,11.13,32.72,23.47,65,34.72,97.72C6.5,687.5,18.69,719,29.41,751.06c1.61,4,3,8.79,6.83,11.33,3.8,1,7.74.93,11.64,1,30.26-.25,60.52-.1,90.78-.14,12.34-.12,25,1.42,37-2.29-.52,4.46-.95,8.92-1.3,13.42,6.83-13.21,10.07-27.87,15.65-41.61,8.42-26.46,17.88-52.6,25.55-79.29,6.15-18.7,12.53-37.32,18.54-56.08C211,580.39,187.79,563.61,164.65,546.73Z" transform="translate(116.12 106.16)"/><path class="cls-5" d="M836.92,546.73q52.36-38.39,104.88-76.5,87.1-63.75,174.42-127.22c-4,18.52-12.47,35.69-18,53.77-9.7,26.28-19,52.72-28.38,79.1-9.45,27.41-19.75,54.52-29.35,81.89-11.13,32.72-23.47,65-34.72,97.72-10.71,32-22.91,63.54-33.63,95.57-1.61,4-3,8.79-6.83,11.33-3.8,1-7.74.93-11.64,1-30.26-.25-60.52-.1-90.78-.14-12.34-.12-25,1.42-37-2.29.52,4.46.95,8.92,1.3,13.42-6.83-13.21-10.07-27.87-15.65-41.61-8.42-26.46-17.88-52.6-25.55-79.29-6.15-18.7-12.53-37.32-18.54-56.08C790.54,580.39,813.78,563.61,836.92,546.73Z" transform="translate(116.12 106.16)"/></svg>